<?xml version="1.0" standalone="no"?>
<!DOCTYPE svg PUBLIC "-//W3C//DTD SVG 20010904//EN"
 "http://www.w3.org/TR/2001/REC-SVG-20010904/DTD/svg10.dtd">
<svg version="1.0" xmlns="http://www.w3.org/2000/svg"
 width="700.000000pt" height="700.000000pt" viewBox="0 0 700.000000 700.000000"
 preserveAspectRatio="xMidYMid meet">
<metadata>
Created by potrace 1.14, written by Peter Selinger 2001-2017
</metadata>
<g transform="translate(0.000000,700.000000) scale(0.100000,-0.100000)"
fill="#000000" stroke="none">
<path d="M3777 6994 c-1 -1 -47 -4 -102 -8 -147 -10 -176 -13 -327 -41 -206
-38 -400 -92 -571 -159 l-87 -34 -41 71 c-22 40 -44 79 -49 87 -6 8 -16 30
-24 48 -8 17 -19 32 -23 32 -6 0 -193 -322 -326 -564 -16 -28 -35 -61 -43 -73
-7 -12 -10 -24 -6 -26 11 -7 752 -5 752 2 0 3 -30 53 -65 111 l-64 105 41 19
c131 59 376 128 568 160 19 3 44 8 56 10 106 21 521 29 669 14 156 -17 285
-40 439 -79 492 -124 927 -368 1271 -714 135 -135 165 -168 247 -276 72 -93
198 -279 198 -291 0 -16 24 -7 114 43 50 28 93 53 95 55 10 9 -137 235 -240
367 -142 183 -296 336 -519 520 -42 34 -268 186 -325 218 -86 48 -173 92 -250
125 -44 20 -93 42 -110 49 -94 42 -437 145 -535 161 -14 2 -45 9 -70 14 -63
15 -78 17 -145 25 -33 4 -69 9 -79 11 -57 10 -439 25 -449 18z"/>
<path d="M3329 6026 c-2 -2 -31 -6 -64 -9 -202 -20 -535 -100 -670 -162 -16
-7 -52 -22 -80 -33 -155 -62 -436 -235 -586 -363 -428 -364 -723 -857 -847
-1414 -21 -95 -28 -132 -37 -205 -3 -25 -10 -76 -14 -115 -9 -69 -7 -471 2
-510 3 -11 8 -42 11 -70 46 -359 191 -735 405 -1050 374 -552 948 -934 1609
-1070 67 -14 139 -28 160 -30 20 -3 66 -9 102 -14 84 -12 334 -11 430 0 750
92 1381 438 1802 990 235 309 392 652 467 1021 36 176 46 284 46 503 -1 232
-10 320 -57 545 -6 30 -12 60 -14 65 -14 69 -77 260 -121 365 -235 569 -656
1028 -1188 1293 -246 123 -547 215 -790 243 -33 3 -69 8 -80 11 -25 6 -480 15
-486 9z m101 -223 c1 -26 1 -870 0 -987 l0 -98 -100 6 c-83 5 -188 20 -285 40
-57 11 -159 42 -243 73 -52 19 -52 13 15 183 168 425 364 702 556 785 43 19
57 18 57 -2z m268 0 c115 -53 229 -161 327 -310 58 -88 139 -242 175 -332 l21
-53 -45 -48 c-70 -75 -107 -163 -110 -265 -1 -35 -1 -34 -211 -61 -33 -4 -96
-8 -140 -8 l-80 -1 0 548 c0 602 -5 562 63 530z m-737 -101 c-142 -186 -260
-414 -356 -689 l-32 -92 -104 53 c-57 29 -135 72 -174 96 -91 57 -255 180
-255 191 0 14 129 117 245 194 178 119 422 233 645 300 41 13 78 23 83 24 4 1
-19 -34 -52 -77z m1308 12 c145 -49 338 -139 446 -209 31 -19 57 -35 59 -35
18 0 276 -196 276 -210 0 -5 -73 -57 -162 -116 -151 -101 -163 -106 -184 -93
-133 84 -168 102 -223 112 -34 6 -61 15 -61 19 0 16 -84 184 -129 258 -64 106
-147 222 -208 291 -18 20 -33 39 -33 42 0 7 120 -25 219 -59z m1046 -699 c126
-142 234 -304 325 -490 84 -168 121 -267 165 -440 36 -139 44 -182 60 -325 l7
-56 -586 0 -586 -1 -5 31 c-2 17 -7 60 -10 96 -3 36 -7 89 -10 118 -3 28 -7
78 -10 110 -6 62 -14 133 -21 172 -2 14 -7 50 -10 80 -3 30 -7 57 -9 60 -8 14
-15 110 -8 110 19 0 99 88 119 131 40 82 46 104 50 174 2 52 8 73 20 80 79 48
235 156 304 213 l85 69 34 -36 c18 -20 57 -63 86 -96z m-3347 57 c158 -124
288 -208 462 -301 52 -27 95 -56 94 -63 0 -7 -8 -47 -18 -88 -10 -41 -20 -86
-22 -100 -3 -14 -11 -59 -19 -100 -14 -74 -17 -91 -31 -180 -10 -67 -11 -82
-13 -117 -1 -29 -5 -33 -53 -48 -161 -52 -293 -177 -324 -306 -4 -19 -9 -37
-10 -41 -1 -5 -2 -12 -3 -16 0 -4 -182 -8 -403 -8 l-403 1 1 35 c2 83 41 297
76 415 38 131 102 290 166 415 58 115 182 314 230 371 11 13 52 63 92 112 40
48 77 87 82 87 5 0 48 -31 96 -68z m2502 -113 c116 -25 173 -165 105 -255 -75
-98 -232 -95 -287 6 -27 49 -21 143 11 189 45 62 88 77 171 60z m-1670 -333
c73 -20 266 -61 360 -76 41 -6 86 -13 100 -16 14 -2 56 -6 95 -10 38 -4 71 -7
73 -9 2 -2 4 -396 3 -686 l-1 -125 -236 0 -236 1 -17 50 c-47 133 -182 270
-294 298 -25 7 -27 10 -22 57 5 54 12 114 20 170 3 19 7 53 10 75 2 22 7 51 9
65 3 14 8 42 11 62 5 40 22 122 31 151 4 11 12 16 22 13 9 -3 42 -12 72 -20z
m1373 -86 c61 -62 122 -93 228 -114 25 -5 27 -11 34 -73 3 -38 8 -79 10 -93 2
-14 6 -45 9 -70 3 -25 8 -67 12 -95 12 -95 14 -120 20 -255 l7 -136 -429 1
-429 0 -1 395 c0 217 2 400 4 406 2 7 22 12 45 11 81 0 213 14 312 34 55 12
102 23 104 25 13 12 41 -1 74 -36z m-1628 -665 c126 -22 208 -128 207 -266 -1
-157 -108 -263 -267 -263 -163 0 -270 107 -268 269 0 82 17 127 69 184 39 44
83 68 149 80 42 8 46 8 110 -4z m-509 -392 c25 -76 80 -166 130 -212 65 -60
114 -85 205 -105 17 -4 25 -12 26 -28 0 -24 10 -138 18 -223 5 -52 23 -187 29
-221 4 -25 14 -81 21 -122 5 -27 18 -86 36 -162 3 -9 -11 -23 -36 -35 -262
-133 -449 -258 -609 -406 l-29 -27 -49 57 c-256 291 -442 671 -512 1042 -31
168 -34 186 -42 337 l-7 122 407 0 c378 0 407 -1 412 -17z m1394 -10 c0 -16 2
-213 3 -440 l2 -411 -55 -7 c-243 -29 -466 -75 -618 -129 -65 -22 -72 -23 -76
-8 -8 24 -33 177 -41 242 -3 30 -8 62 -10 70 -2 8 -7 49 -10 90 -3 41 -8 82
-10 90 -2 8 -7 54 -10 103 -6 78 -4 88 12 93 68 23 146 68 195 113 59 54 118
153 118 198 l0 23 250 0 250 0 0 -27z m1063 -30 c-3 -129 -14 -374 -18 -414
-2 -24 -6 -80 -9 -124 -8 -117 -17 -210 -21 -214 -2 -1 -21 -5 -42 -8 -60 -8
-157 -59 -206 -109 l-45 -45 -44 12 c-23 6 -47 12 -53 13 -5 1 -23 5 -40 9
-48 11 -224 38 -290 44 -33 3 -67 9 -75 13 -13 7 -15 68 -16 437 0 235 1 431
3 436 2 4 196 7 431 7 l427 0 -2 -57z m1373 -77 c-3 -74 -8 -140 -10 -148 -3
-7 -7 -31 -10 -53 -53 -412 -262 -870 -535 -1167 l-52 -57 -22 20 c-68 66
-352 269 -375 269 -4 0 -18 7 -30 16 -18 13 -21 19 -11 30 20 24 5 136 -26
199 -27 57 -117 155 -141 155 -23 0 -24 17 -9 124 8 58 17 136 20 173 4 38 8
78 10 90 5 29 16 232 20 365 2 57 4 106 4 111 1 4 265 7 587 7 l587 0 -7 -134z
m-1310 -892 c37 -27 74 -101 74 -146 0 -52 -35 -112 -81 -137 -33 -19 -52 -22
-100 -19 -99 7 -154 63 -154 157 0 88 52 155 135 172 48 10 89 1 126 -27z
m-1126 -86 c3 -223 0 -1181 -3 -1184 -10 -10 -101 34 -158 76 -195 142 -403
517 -519 932 l-18 67 31 10 c137 43 336 85 525 111 70 10 130 18 135 19 4 1 7
-14 7 -31z m380 17 c69 -6 149 -21 223 -42 l57 -16 0 -42 c0 -94 54 -200 135
-264 l43 -35 -15 -40 c-127 -339 -248 -535 -408 -663 -63 -50 -177 -108 -198
-100 -9 3 -12 148 -11 598 1 327 2 599 3 606 1 11 34 11 171 -2z m-1245 -258
c25 -116 135 -400 213 -547 71 -135 186 -315 229 -358 16 -17 17 -22 1 -17
-356 110 -574 210 -796 363 -92 63 -242 185 -242 196 0 21 158 163 269 241 68
48 300 167 311 160 5 -3 12 -20 15 -38z m2295 -141 c71 -47 131 -96 236 -193
13 -12 21 -28 18 -35 -7 -19 -144 -126 -253 -199 -209 -139 -428 -236 -800
-355 -12 -4 -12 -2 0 13 7 10 18 23 24 28 22 21 104 132 142 195 55 90 124
236 167 355 53 145 54 148 101 152 65 5 142 34 198 73 l52 37 35 -20 c19 -11
55 -34 80 -51z"/>
<path d="M386 5047 c-41 -71 -147 -289 -175 -359 -26 -65 -71 -198 -100 -293
-40 -131 -86 -385 -99 -545 -17 -222 -1 -574 34 -742 2 -13 7 -41 10 -63 11
-77 93 -381 133 -492 182 -511 495 -957 923 -1315 l106 -89 -45 -82 c-67 -121
-83 -151 -83 -158 0 -3 176 -5 390 -5 215 0 390 2 390 4 0 2 -41 73 -90 158
-50 84 -102 175 -117 201 -14 26 -49 86 -77 133 -28 47 -60 101 -70 122 -47
89 -44 90 -111 -33 -33 -61 -63 -115 -67 -122 -10 -16 -134 88 -273 228 -270
273 -482 601 -625 967 -76 193 -156 495 -185 691 -19 134 -26 446 -12 572 4
33 9 85 13 115 3 30 10 74 15 98 5 23 12 59 15 80 28 185 141 504 263 738 l59
114 -101 55 c-55 30 -100 55 -101 55 -1 0 -9 -15 -20 -33z"/>
<path d="M6545 3118 c-76 -134 -162 -285 -191 -335 -43 -75 -50 -93 -36 -94 9
0 70 0 135 1 64 1 117 -2 117 -7 0 -22 -31 -180 -54 -275 -118 -489 -396 -996
-739 -1347 -177 -181 -506 -411 -759 -530 -266 -125 -575 -222 -791 -247 -29
-4 -54 -8 -58 -10 -4 -2 -99 -13 -184 -19 -16 -2 -66 -3 -111 -4 l-81 -1 0
-126 1 -126 140 6 c78 3 150 8 161 10 11 2 52 7 90 12 39 4 72 9 75 9 3 1 28
5 55 9 28 4 66 12 85 16 19 5 46 11 60 14 51 9 190 47 276 75 840 274 1501
879 1844 1686 78 183 157 451 186 630 3 22 8 47 9 55 2 8 6 40 10 70 4 30 8
64 9 75 3 22 5 22 134 24 l72 1 0 75 c0 73 -1 76 -57 167 -31 51 -61 102 -67
113 -22 40 -179 300 -186 308 -4 5 -70 -101 -145 -235z"/>
</g>
</svg>
